<?xml version="1.0" standalone="no"?> <!-- may want to throw this in there width="1650" height="1080" viewBox="0 0 1650 1080" -->
<!DOCTYPE svg PUBLIC "-//W3C//DTD SVG 1.1//EN" 
"http://www.w3.org/Graphics/SVG/1.1/DTD/svg11.dtd">
<svg xmlns="http://www.w3.org/2000/svg" xmlns:xlink="http://www.w3.org/1999/xlink" version="1.1"
    style="background:white" width="100%" height="100%" >
  <svg x="50%" y="50%" width="500px" height="500px" overflow="visible"> 


<polyline points="0.8674399740001554,-0.4975418490002723 0.0007090265799901961,-0.2499989945605959 -0.8646038676801947,-0.5024541292421114 -0.2168599935000389,0.124385462250068 -0.0028361063199613514,0.9999959782423836 0.21615096692004868,0.12561353231052788 0.8674399740001554,-0.4975418490002723 " style="fill:none;stroke:#000000;stroke-width:2" />
<polyline points="-69.32225670383333,-113.06867200082571 -33.1453676692005,0.8751248381932312 -63.25921397296871,116.5691713535986 17.330564175958315,28.26716800020644 132.581470676802,-3.5004993527729087 15.814803493242179,-29.14229283839965 -69.32225670383333,-113.06867200082571 " style="fill:none;stroke:#000000;stroke-width:2" />
<polyline points="125.55558820541782,-156.97197935659932 -9.180680091404973,-53.782331240211306 " style="fill:none;stroke:#000000;stroke-width:2" />
<polyline points="-47.43463042553086,-44.13075863973616 -198.7195159078504,-30.248339294690034 -41.98652508306997,34.84186780328038 " style="fill:none;stroke:#000000;stroke-width:2" />
<polyline points="-14.501042857525693,63.144974287504056 73.16392770243253,187.22031865128938 51.167205174474915,18.940463436930955 " style="fill:none;stroke:#000000;stroke-width:2" />
<polyline points="61.93567328305654,-19.014215647767898 125.55558820541782,-156.97197935659932 " style="fill:none;stroke:#000000;stroke-width:2" />
<polyline points="-246.07377891118568,-71.90301567574237 -177.7694310317405,-32.17079085115074 " style="fill:none;stroke:#000000;stroke-width:2" />
<polyline points="-113.93009258193145,4.96416507314575 -46.326681909874125,44.28865897611276 -45.07056782586448,46.69041683754039 " style="fill:none;stroke:#000000;stroke-width:2" />
<polyline points="-28.46364128731075,78.44375586611253 60.767051271689084,249.0576515801935 61.02399337893761,170.03823871536832 " style="fill:none;stroke:#000000;stroke-width:2" />
<polyline points="61.26413935288933,96.18427189489245 61.51844472779641,17.975753918935656 62.97037100752694,15.687048281418003 " style="fill:none;stroke:#000000;stroke-width:2" />
<polyline points="82.16610599197341,-14.571641494037575 185.30672763949653,-177.154635904451 116.74543765280274,-137.8674478642175 " style="fill:none;stroke:#000000;stroke-width:2" />
<polyline points="52.66595322904169,-101.14843696803825 -15.191762817922205,-62.26441289504839 -17.89980318166248,-62.377465118958426 " style="fill:none;stroke:#000000;stroke-width:2" />
<polyline points="-53.70246470466269,-63.87211437207497 -246.07377891118568,-71.90301567574237 " style="fill:none;stroke:#000000;stroke-width:2" />
<polyline points="302.8757956138296,-32.91096918307329 110.30937239624396,-58.934536068526285 " style="fill:none;stroke:#000000;stroke-width:2" />
<polyline points="17.327183407735255,-80.89851320858676 -179.93963318262303,-245.84264860146328 -106.193491593716,-66.06345073640202 " style="fill:none;stroke:#000000;stroke-width:2" />
<polyline points="-78.72375927089475,25.443475597162486 -122.93616243120667,278.75361778453646 -4.115880802527965,124.9979868049283 " style="fill:none;stroke:#000000;stroke-width:2" />
<polyline points="61.39657586315947,55.455037611424316 302.8757956138296,-32.91096918307329 " style="fill:none;stroke:#000000;stroke-width:2" />
<polyline points="-315.18229824658476,-148.2371697491582 -219.86078218615742,-70.80870496501936 " style="fill:none;stroke:#000000;stroke-width:2" />
<polyline points="-139.80780870079786,-5.7826846649707 -81.53521551411771,41.55140753069936 " style="fill:none;stroke:#000000;stroke-width:2" />
<polyline points="-33.234117171398914,162.67752050524675 29.21399433541519,347.07446197928505 48.60825378429456,225.8093751516393 " style="fill:none;stroke:#000000;stroke-width:2" />
<polyline points="64.89595252845957,123.96845631481139 76.75218224164453,49.835864172915315 " style="fill:none;stroke:#000000;stroke-width:2" />
<polyline points="157.49992396790708,-52.55717050984335 285.96830391116947,-198.83729223012682 171.25252840186292,-155.00067018661986 " style="fill:none;stroke:#000000;stroke-width:2" />
<polyline points="74.91185617233822,-118.18577164984066 4.783033272473171,-91.3872717036147 " style="fill:none;stroke:#000000;stroke-width:2" />
<polyline points="-124.26580679650819,-110.12034999540342 -315.18229824658476,-148.2371697491582 " style="fill:none;stroke:#000000;stroke-width:2" />
<polyline points="350.61623186347157,-167.48076948051275 238.07976989175626,-144.30916174027786 " style="fill:none;stroke:#000000;stroke-width:2" />
<polyline points="32.50466907312364,-101.98060871960583 7.566378729061578,-96.84573712829943 -9.326835527681556,-103.18520178620619 " style="fill:none;stroke:#000000;stroke-width:2" />
<polyline points="-141.81580104368942,-152.90392918091135 -320.35071694722535,-219.90217903268498 -244.01528501179612,-134.0285479832755 " style="fill:none;stroke:#000000;stroke-width:2" />
<polyline points="-104.57013238114126,22.840435200871504 -87.65405796586792,41.87019237012816 -84.69758827763724,59.66987739699457 " style="fill:none;stroke:#000000;stroke-width:2" />
<polyline points="-61.51078648728138,199.26805095233047 -30.265514916246534,387.38294851319773 5.935515120039742,278.3377097235532 " style="fill:none;stroke:#000000;stroke-width:2" />
<polyline points="72.06546330801761,79.14017351873444 80.08767923680632,54.97554475817126 94.02442380531879,43.51532438921161 " style="fill:none;stroke:#000000;stroke-width:2" />
<polyline points="203.32658753097073,-46.36412177141911 350.61623186347157,-167.48076948051275 " style="fill:none;stroke:#000000;stroke-width:2" />
<polyline points="-28.903651125430887,-425.2333172420914 -75.91677341256151,-158.86420507795253 " style="fill:none;stroke:#000000;stroke-width:2" />
<polyline points="-135.87449577752975,-2.5877042056670394 -353.81102970446307,237.6479547577915 -99.62205064324704,145.17795688760157 " style="fill:none;stroke:#000000;stroke-width:2" />
<polyline points="65.69623030917734,118.9646171725757 382.7146808298939,187.58536248429996 175.5388240558084,13.68624819035097 " style="fill:none;stroke:#000000;stroke-width:2" />
<polyline points="70.17826546835234,-116.37691296690866 -28.903651125430887,-425.2333172420914 " style="fill:none;stroke:#000000;stroke-width:2" />
<polyline points="-387.8841870795135,-250.5469531152404 -286.23022422052986,-142.45683627054368 " style="fill:none;stroke:#000000;stroke-width:2" />
<polyline points="-188.23799018458578,-38.260288207666065 -182.13439405398333,-31.77024689127529 " style="fill:none;stroke:#000000;stroke-width:2" />
<polyline points="-169.15702802955207,-17.971227448589488 -145.1125634805667,7.5955966030545525 " style="fill:none;stroke:#000000;stroke-width:2" />
<polyline points="-71.58792928332872,212.3080591718018 -23.03793269883023,461.19103629475455 19.743872957213608,319.11106364116665 " style="fill:none;stroke:#000000;stroke-width:2" />
<polyline points="60.98461354833978,182.14902556101035 63.553356134643636,173.61813559927262 " style="fill:none;stroke:#000000;stroke-width:2" />
<polyline points="69.01497450710929,155.47989722656314 79.13426135542734,121.87336808092554 " style="fill:none;stroke:#000000;stroke-width:2" />
<polyline points="219.6581373126146,-44.15706422221442 410.9221197783436,-210.6440831795142 266.4863512633162,-176.65422737062295 " style="fill:none;stroke:#000000;stroke-width:2" />
<polyline points="127.25337663624614,-143.8887373533441 118.5810379193396,-141.8478887079973 " style="fill:none;stroke:#000000;stroke-width:2" />
<polyline points="100.14205352244265,-137.50866977797364 65.97830212513936,-129.46896468398003 " style="fill:none;stroke:#000000;stroke-width:2" />
<polyline points="-148.07020802928588,-168.15099494958753 -387.8841870795135,-250.5469531152404 " style="fill:none;stroke:#000000;stroke-width:2" />
<polyline points="-39.1215214176225,-494.0319849586686 -92.18444584283033,-172.4663770511397 " style="fill:none;stroke:#000000;stroke-width:2" />
<polyline points="-155.78640345898503,-3.754050552849442 -408.28348854744746,280.8962238616924 -103.26804090353738,166.06726045925174 " style="fill:none;stroke:#000000;stroke-width:2" />
<polyline points="74.64209858363384,136.79200823611774 447.4050099650699,213.13576109697632 195.45248674636758,6.399116591887935 " style="fill:none;stroke:#000000;stroke-width:2" />
<polyline points="81.14430487535117,-133.03795768326827 -39.1215214176225,-494.0319849586686 " style="fill:none;stroke:#000000;stroke-width:2" />
<polyline points="522.2985773911853,-76.81928665151658 283.72136643507696,-99.92133255897949 " style="fill:none;stroke:#000000;stroke-width:2" />
<polyline points="-83.5206014494351,-224.96997385355905 -327.6767424364048,-413.91419305548084 -228.3950955936079,-195.74924464972054 " style="fill:none;stroke:#000000;stroke-width:2" />
<polyline points="-153.06941172118565,184.8159495213458 -194.62183495478078,490.7334797069973 -55.326270841469245,295.67057720869985 " style="fill:none;stroke:#000000;stroke-width:2" />
<polyline points="236.5900131706206,40.154024332213325 522.2985773911853,-76.81928665151658 " style="fill:none;stroke:#000000;stroke-width:2" />
<polyline points="57.565655710009686,-556.0141658384783 -3.391035090335169,-386.78213225009694 " style="fill:none;stroke:#000000;stroke-width:2" />
<polyline points="-186.11401253503413,-25.013354491598726 -510.30522033514086,228.15376268886206 -333.2676347133288,196.3277886584032 " style="fill:none;stroke:#000000;stroke-width:2" />
<polyline points="71.39480584392696,173.68614010139447 452.7395646251309,327.8604031496166 336.6586698036636,190.4543435916938 " style="fill:none;stroke:#000000;stroke-width:2" />
<polyline points="114.71920669110715,-148.67278560979568 57.565655710009686,-556.0141658384783 " style="fill:none;stroke:#000000;stroke-width:2" />
<polyline points="-169.91043018222214,-563.9015018023366 -155.71826390193505,-280.8413146486265 " style="fill:none;stroke:#000000;stroke-width:2" />
<polyline points="-296.4582271362651,238.7974418188761 -403.3978107019087,429.09749980691504 -165.35658096696199,275.2766296965985 " style="fill:none;stroke:#000000;stroke-width:2" />
<polyline points="355.03376454201566,137.34163495146484 573.308240884131,134.80400199542171 321.0748448688968,5.564684952028152 " style="fill:none;stroke:#000000;stroke-width:2" />
<polyline points="-58.575537405750595,-376.1390767703409 -169.91043018222214,-563.9015018023366 " style="fill:none;stroke:#000000;stroke-width:2" />
<polyline points="-298.37821555541694,-541.102896776663 -247.82695603125197,-352.12113110432955 " style="fill:none;stroke:#000000;stroke-width:2" />
<polyline points="-259.6491479681068,336.20794280232167 -319.4197468922307,528.9545629951916 -181.03236673003457,390.68500521779816 " style="fill:none;stroke:#000000;stroke-width:2" />
<polyline points="420.98919340496906,56.75878681020422 617.7979624476475,12.148333781471276 428.8593227612863,-38.56387411346853 " style="fill:none;stroke:#000000;stroke-width:2" />
<polyline points="-161.34004543686254,-392.96672961252557 -298.37821555541694,-541.102896776663 " style="fill:none;stroke:#000000;stroke-width:2" />
<polyline points="-644.1427999496328,-49.11209608204478 -300.4496773016913,64.27355380029425 " style="fill:none;stroke:#000000;stroke-width:2" />
<polyline points="38.31550680721733,290.16609158931584 279.5390771346633,582.400076462242 205.88736903340632,228.06027620195448 " style="fill:none;stroke:#000000;stroke-width:2" />
<polyline points="232.133453229581,-178.26524804858377 364.6037228149694,-533.2879803801973 94.56230826828495,-292.3338300022486 " style="fill:none;stroke:#000000;stroke-width:2" />
<polyline points="-270.44896003679844,-111.90084354073214 -644.1427999496328,-49.11209608204478 " style="fill:none;stroke:#000000;stroke-width:2" />
<polyline points="554.0395046573741,-382.6140656400319 267.9849814985063,-274.34799600504925 " style="fill:none;stroke:#000000;stroke-width:2" />
<polyline points="-236.23241458735555,-212.97124235306043 -339.56150073387084,-233.94410928454937 " style="fill:none;stroke:#000000;stroke-width:2" />
<polyline points="-379.9865066597979,-242.14923623967357 -608.3732530182014,-288.5052529134168 -371.5848247669774,-94.90780380788459 " style="fill:none;stroke:#000000;stroke-width:2" />
<polyline points="-66.3222988596051,311.0688934065177 -32.820791339207084,411.04094042497655 " style="fill:none;stroke:#000000;stroke-width:2" />
<polyline points="-19.714136760657954,450.15258598252683 54.333748360826824,671.1193185534487 103.59984326847098,369.2557998129336 " style="fill:none;stroke:#000000;stroke-width:2" />
<polyline points="302.5547134469605,-98.09765105345735 372.38229207307813,-177.09683114042576 " style="fill:none;stroke:#000000;stroke-width:2" />
<polyline points="399.70064342045566,-208.003349742853 554.0395046573741,-382.6140656400319 " style="fill:none;stroke:#000000;stroke-width:2" />
<polyline points="-661.9668612839079,-227.2847073446297 -439.3083653120444,-83.52876613018503 " style="fill:none;stroke:#000000;stroke-width:2" />
<polyline points="73.15347238230433,555.806990156031 134.14910018979253,686.9224720076287 147.31614924051246,422.2165875203372 " style="fill:none;stroke:#000000;stroke-width:2" />
<polyline points="444.7662368849383,-341.25626053613496 527.817761094115,-459.6377646629987 291.9922160715314,-338.68782139015207 " style="fill:none;stroke:#000000;stroke-width:2" />
<polyline points="-517.9197092672426,-214.55072961989626 -661.9668612839079,-227.2847073446297 " style="fill:none;stroke:#000000;stroke-width:2" />
<polyline points="-640.6542120566294,-341.15282954203985 -574.3615732531515,-281.6018488436532 " style="fill:none;stroke:#000000;stroke-width:2" />
<polyline points="-85.29915084853346,337.64317703718507 24.880089071965973,725.3992374535637 43.306431775306386,638.2126378166536 " style="fill:none;stroke:#000000;stroke-width:2" />
<polyline points="335.0571441529561,-94.95035696252178 615.7741229846637,-384.24640791152353 531.0551414778445,-356.6107889729989 " style="fill:none;stroke:#000000;stroke-width:2" />
<polyline points="-249.75799330442248,-242.6928200746636 -640.6542120566294,-341.15282954203985 " style="fill:none;stroke:#000000;stroke-width:2" />
<polyline points="-723.507680905812,-201.8959736483742 -497.0512981793312,-73.82668907648323 " style="fill:none;stroke:#000000;stroke-width:2" />
<polyline points="136.76086525489026,634.416433717151 186.90679835162015,727.5240183217857 184.5898608721359,467.3723957455763 " style="fill:none;stroke:#000000;stroke-width:2" />
<polyline points="481.04031554993395,-435.64660041285117 536.6008825541916,-525.6280446734114 312.4614373071951,-393.545706669093 " style="fill:none;stroke:#000000;stroke-width:2" />
<polyline points="-617.8011808048249,-198.7698333042998 -723.507680905812,-201.8959736483742 " style="fill:none;stroke:#000000;stroke-width:2" />
<polyline points="-656.1554542580332,-414.13250357462204 -568.6414564776879,-323.0140595669609 " style="fill:none;stroke:#000000;stroke-width:2" />
<polyline points="-112.79714460710638,376.150063523994 -30.57154149945616,775.3135440064859 4.582346874315903,653.9649767381409 " style="fill:none;stroke:#000000;stroke-width:2" />
<polyline points="382.15408295046245,-90.38983905789621 686.7269957574891,-361.1810404318639 564.0591096033726,-330.95091717118066 " style="fill:none;stroke:#000000;stroke-width:2" />
<polyline points="-269.3569383433562,-285.76022446609795 -656.1554542580332,-414.13250357462204 " style="fill:none;stroke:#000000;stroke-width:2" />
<polyline points="-548.1917888577004,-582.8826712224594 -406.788378153346,-331.3715348090416 " style="fill:none;stroke:#000000;stroke-width:2" />
<polyline points="-213.56665529161336,423.1915942343629 -230.69530627553218,766.1893509080335 -83.5819781589964,517.9748368495895 " style="fill:none;stroke:#000000;stroke-width:2" />
<polyline points="473.2779989208016,-26.641648233369985 778.8870951332328,-183.30667968557376 490.37035631234227,-186.60330204054742 " style="fill:none;stroke:#000000;stroke-width:2" />
<polyline points="-259.7113436291879,-396.54994600099315 -548.1917888577004,-582.8826712224594 " style="fill:none;stroke:#000000;stroke-width:2" />
<polyline points="-124.79652381863939,-814.4306432156451 -150.50555971731828,-531.1758625614816 " style="fill:none;stroke:#000000;stroke-width:2" />
<polyline points="-161.94845427408922,-405.1013337265267 -162.89706243609317,-394.64984118848946 " style="fill:none;stroke:#000000;stroke-width:2" />
<polyline points="-409.62954115171215,210.05533720516158 -642.9193647359294,515.2922815387541 -384.759010996695,395.9295694067341 " style="fill:none;stroke:#000000;stroke-width:2" />
<polyline points="-269.85381897708436,342.80214236824673 -260.3282568506796,338.3979148657612 " style="fill:none;stroke:#000000;stroke-width:2" />
<polyline points="386.7280287960324,249.7219201753653 767.7158885545686,299.1383616768915 535.2645707140131,135.24629315474724 " style="fill:none;stroke:#000000;stroke-width:2" />
<polyline points="431.80227325117346,62.299191358279025 423.2253192867724,56.251926322728224 " style="fill:none;stroke:#000000;stroke-width:2" />
<polyline points="22.901512355679607,-459.77725738052663 -124.79652381863939,-814.4306432156451 " style="fill:none;stroke:#000000;stroke-width:2" />
<polyline points="-770.8304110582594,-351.6624315843792 -608.0089124571269,-222.5147461977891 " style="fill:none;stroke:#000000;stroke-width:2" />
<polyline points="30.32080452539023,699.6557957075217 80.86660622045041,843.3899337782435 111.3010333046313,637.8085370141164 " style="fill:none;stroke:#000000;stroke-width:2" />
<polyline points="590.7592907250344,-376.0864848359305 689.9638048378094,-491.72750219386404 496.70787915249576,-415.293790816326 " style="fill:none;stroke:#000000;stroke-width:2" />
<polyline points="-621.0800952504244,-323.5693108715909 -770.8304110582594,-351.6624315843792 " style="fill:none;stroke:#000000;stroke-width:2" />
<polyline points="-801.5898413676811,-338.57095809960225 -651.5803348018654,-226.36652329858634 " style="fill:none;stroke:#000000;stroke-width:2" />
<polyline points="86.15596464807153,807.6608664779545 107.583869985948,863.4826450897511 129.75100765799465,677.468384194079 " style="fill:none;stroke:#000000;stroke-width:2" />
<polyline points="656.3768456884234,-478.44368731176024 694.0059713817328,-524.911686990149 521.8293271438708,-451.1018608954922 " style="fill:none;stroke:#000000;stroke-width:2" />
<polyline points="-742.532810336495,-329.21717916619303 -801.5898413676811,-338.57095809960225 " style="fill:none;stroke:#000000;stroke-width:2" />
<polyline points="284.5757034343159,-846.0894783593461 65.20294604811407,-501.5821255867795 " style="fill:none;stroke:#000000;stroke-width:2" />
<polyline points="-498.98112209245346,-1.2227142549114518 -875.0228338510757,176.59495070572893 -466.98433586640476,194.3236551141368 " style="fill:none;stroke:#000000;stroke-width:2" />
<polyline points="248.43165943990388,432.74168486838505 590.4471304167597,669.4945276536173 401.78138981829096,307.25847047264324 " style="fill:none;stroke:#000000;stroke-width:2" />
<polyline points="250.54946265254938,-431.51897061347347 284.5757034343159,-846.0894783593461 " style="fill:none;stroke:#000000;stroke-width:2" />
<polyline points="-888.1722863062539,-219.10494623115588 -584.2639001632954,-59.17306234701011 " style="fill:none;stroke:#000000;stroke-width:2" />
<polyline points="134.88298692451517,672.1686622147187 254.3356936221227,878.7322359940995 240.88657486941662,535.5739112290942 " style="fill:none;stroke:#000000;stroke-width:2" />
<polyline points="514.673643643491,-452.8964243223144 633.8365926841318,-659.6272897629434 343.3773252938787,-476.4008488820833 " style="fill:none;stroke:#000000;stroke-width:2" />
<polyline points="-649.5566305680063,-219.2722378924051 -888.1722863062539,-219.10494623115588 " style="fill:none;stroke:#000000;stroke-width:2" />
<polyline points="775.1426445233739,-525.6791101770501 660.336903390735,-483.33394071645546 " style="fill:none;stroke:#000000;stroke-width:2" />
<polyline points="-601.6413372266899,-357.37310911963425 -842.8227859138111,-408.45366662536736 -748.7479228670596,-330.20156303449926 " style="fill:none;stroke:#000000;stroke-width:2" />
<polyline points="-8.673522513686791,699.7232365649709 67.6801413904371,934.1327768024175 88.41101947632464,813.5355037509548 " style="fill:none;stroke:#000000;stroke-width:2" />
<polyline points="610.3148597403765,-342.35012744533657 775.1426445233739,-525.6791101770501 " style="fill:none;stroke:#000000;stroke-width:2" />
<polyline points="640.5833104070472,-712.3740605445938 360.5857885950604,-522.5198435782918 " style="fill:none;stroke:#000000;stroke-width:2" />
<polyline points="327.05631278066994,-499.78495530200865 251.97396252466874,-448.8748589426041 " style="fill:none;stroke:#000000;stroke-width:2" />
<polyline points="-854.4728094230433,-201.37058591209967 -937.2256886322156,-198.57438978053847 -632.8083528178022,-51.01653137782155 " style="fill:none;stroke:#000000;stroke-width:2" />
<polyline points="-596.3546241111445,-33.34659768512496 -514.7240122267859,6.221576832710781 " style="fill:none;stroke:#000000;stroke-width:2" />
<polyline points="252.8443617366868,840.6804527594662 296.6423782251679,910.9484503251326 272.22256422274125,573.536374956113 " style="fill:none;stroke:#000000;stroke-width:2" />
<polyline points="269.29831133047423,533.1315529871321 262.75004970211694,442.6532821098932 " style="fill:none;stroke:#000000;stroke-width:2" />
<polyline points="601.6284476863565,-639.3098668473643 640.5833104070472,-712.3740605445938 " style="fill:none;stroke:#000000;stroke-width:2" />
<polyline points="835.2748881078804,-510.96084190110736 732.7422598585699,-478.5194677765553 " style="fill:none;stroke:#000000;stroke-width:2" />
<polyline points="-418.6722143501043,-352.5090528640113 -860.1425134793835,-467.88885129407515 -780.7811452291911,-395.3136775756624 " style="fill:none;stroke:#000000;stroke-width:2" />
<polyline points="-95.94568766917337,538.8352999178802 24.86762537150287,978.8496931951826 48.03888537062092,873.8331453522176 " style="fill:none;stroke:#000000;stroke-width:2" />
<polyline points="514.6179020192776,-186.32624705386831 835.2748881078804,-510.96084190110736 " style="fill:none;stroke:#000000;stroke-width:2" />
<polyline points="-562.8610051171053,-826.5515645853936 -448.58336195751207,-518.5444814202591 " style="fill:none;stroke:#000000;stroke-width:2" />
<polyline points="-324.7838001747122,378.29757949218794 -434.38414991017225,900.727711523753 -224.78101292341603,647.7568278803649 " style="fill:none;stroke:#000000;stroke-width:2" />
<polyline points="490.0072141177541,92.12223194285588 997.2451550272777,-74.17614693835878 673.3643748809282,-129.21234646010558 " style="fill:none;stroke:#000000;stroke-width:2" />
<polyline points="-165.22341394304155,-470.4198114350435 -562.8610051171053,-826.5515645853936 " style="fill:none;stroke:#000000;stroke-width:2" />
  </svg>
</svg>